<svg class="adic-tree" viewBox="0 0 100 100" xmlns="http://www.w3.org/2000/svg">
<style>
svg {
    background: var(--tree-svg-background, white);
}
svg .tree-path {
    fill: transparent;
    stroke: var(--tree-path, black);
    stroke-width: 0.3;
}
svg .gold-path {
    fill: transparent;
    stroke: var(--gold-path, darkorange);
    stroke-width: 0.5;
}
</style>
<path class="tree-path" d="M 50 100 L 50 92.3076923076923 M 50 92.3076923076923 L 37.999999999999986 83.07692307692308 M 37.999999999999986 83.07692307692308 L 35.999999999999986 80 M 37.999999999999986 83.07692307692308 L 36.999999999999986 80 M 37.999999999999986 83.07692307692308 L 37.999999999999986 80 M 37.999999999999986 83.07692307692308 L 38.99999999999999 80 M 37.999999999999986 83.07692307692308 L 39.99999999999999 80 M 50 92.3076923076923 L 46 83.07692307692308 M 46 83.07692307692308 L 43.99999999999999 80 M 46 83.07692307692308 L 44.99999999999999 80 M 46 83.07692307692308 L 46 80 M 46 83.07692307692308 L 47 80 M 46 83.07692307692308 L 48 80 M 50 92.3076923076923 L 53.99999999999999 83.07692307692308 M 53.99999999999999 83.07692307692308 L 51.99999999999999 80 M 53.99999999999999 83.07692307692308 L 52.99999999999999 80 M 53.99999999999999 83.07692307692308 L 53.99999999999999 80 M 53.99999999999999 83.07692307692308 L 54.99999999999999 80 M 53.99999999999999 83.07692307692308 L 55.99999999999999 80 M 50 92.3076923076923 L 70 76.92307692307693 M 50 92.3076923076923 L 70 83.07692307692308 M 70 83.07692307692308 L 68 80 M 70 83.07692307692308 L 69 80 M 70 83.07692307692308 L 70 80 M 70 83.07692307692308 L 71 80 M 70 83.07692307692308 L 72 80 M 70 76.92307692307693 L 38 67.6923076923077 M 38 67.6923076923077 L 36 64.61538461538461 M 38 67.6923076923077 L 37 64.61538461538461 M 38 67.6923076923077 L 38 64.61538461538461 M 38 67.6923076923077 L 39 64.61538461538461 M 38 67.6923076923077 L 40 64.61538461538461 M 70 76.92307692307693 L 30 61.53846153846154 M 70 76.92307692307693 L 54 67.6923076923077 M 54 67.6923076923077 L 52 64.61538461538461 M 54 67.6923076923077 L 53 64.61538461538461 M 54 67.6923076923077 L 54 64.61538461538461 M 54 67.6923076923077 L 55.00000000000001 64.61538461538461 M 54 67.6923076923077 L 56.00000000000001 64.61538461538461 M 70 76.92307692307693 L 62 67.6923076923077 M 62 67.6923076923077 L 60 64.61538461538461 M 62 67.6923076923077 L 61 64.61538461538461 M 62 67.6923076923077 L 62 64.61538461538461 M 62 67.6923076923077 L 63 64.61538461538461 M 62 67.6923076923077 L 64 64.61538461538461 M 70 76.92307692307693 L 70 67.6923076923077 M 70 67.6923076923077 L 68 64.61538461538461 M 70 67.6923076923077 L 69 64.61538461538461 M 70 67.6923076923077 L 70 64.61538461538461 M 70 67.6923076923077 L 71.00000000000001 64.61538461538461 M 70 67.6923076923077 L 72.00000000000001 64.61538461538461 M 30 61.53846153846154 L 21.999999999999996 52.307692307692314 M 21.999999999999996 52.307692307692314 L 19.999999999999996 49.23076923076923 M 21.999999999999996 52.307692307692314 L 20.999999999999996 49.23076923076923 M 21.999999999999996 52.307692307692314 L 21.999999999999996 49.23076923076923 M 21.999999999999996 52.307692307692314 L 23 49.23076923076923 M 21.999999999999996 52.307692307692314 L 24 49.23076923076923 M 30 61.53846153846154 L 30 46.15384615384615 M 30 61.53846153846154 L 38 52.307692307692314 M 38 52.307692307692314 L 36 49.23076923076923 M 38 52.307692307692314 L 37 49.23076923076923 M 38 52.307692307692314 L 38 49.23076923076923 M 38 52.307692307692314 L 39 49.23076923076923 M 38 52.307692307692314 L 40 49.23076923076923 M 30 61.53846153846154 L 46 52.307692307692314 M 46 52.307692307692314 L 43.99999999999999 49.23076923076923 M 46 52.307692307692314 L 44.99999999999999 49.23076923076923 M 46 52.307692307692314 L 46 49.23076923076923 M 46 52.307692307692314 L 47 49.23076923076923 M 46 52.307692307692314 L 48 49.23076923076923 M 30 61.53846153846154 L 54 52.307692307692314 M 54 52.307692307692314 L 52 49.23076923076923 M 54 52.307692307692314 L 53 49.23076923076923 M 54 52.307692307692314 L 54 49.23076923076923 M 54 52.307692307692314 L 55.00000000000001 49.23076923076923 M 54 52.307692307692314 L 56.00000000000001 49.23076923076923 M 30 46.15384615384615 L 21.999999999999996 36.92307692307693 M 21.999999999999996 36.92307692307693 L 19.999999999999996 33.84615384615385 M 21.999999999999996 36.92307692307693 L 20.999999999999996 33.84615384615385 M 21.999999999999996 36.92307692307693 L 21.999999999999996 33.84615384615385 M 21.999999999999996 36.92307692307693 L 23 33.84615384615385 M 21.999999999999996 36.92307692307693 L 24 33.84615384615385 M 30 46.15384615384615 L 30 30.76923076923077 M 30 46.15384615384615 L 38 36.92307692307693 M 38 36.92307692307693 L 36 33.84615384615385 M 38 36.92307692307693 L 37 33.84615384615385 M 38 36.92307692307693 L 38 33.84615384615385 M 38 36.92307692307693 L 39 33.84615384615385 M 38 36.92307692307693 L 40 33.84615384615385 M 30 46.15384615384615 L 46 36.92307692307693 M 46 36.92307692307693 L 43.99999999999999 33.84615384615385 M 46 36.92307692307693 L 44.99999999999999 33.84615384615385 M 46 36.92307692307693 L 46 33.84615384615385 M 46 36.92307692307693 L 47 33.84615384615385 M 46 36.92307692307693 L 48 33.84615384615385 M 30 46.15384615384615 L 54 36.92307692307693 M 54 36.92307692307693 L 52 33.84615384615385 M 54 36.92307692307693 L 53 33.84615384615385 M 54 36.92307692307693 L 54 33.84615384615385 M 54 36.92307692307693 L 55.00000000000001 33.84615384615385 M 54 36.92307692307693 L 56.00000000000001 33.84615384615385 M 30 30.76923076923077 L 9.999999999999998 15.384615384615385 M 9.999999999999998 15.384615384615385 L 8.999999999999996 12.307692307692308 M 9.999999999999998 15.384615384615385 L 9.999999999999998 12.307692307692308 M 9.999999999999998 15.384615384615385 L 10.999999999999998 12.307692307692308 M 9.999999999999998 15.384615384615385 L 11.999999999999998 12.307692307692308 M 9.999999999999998 15.384615384615385 L 12.999999999999998 12.307692307692308 M 30 30.76923076923077 L 26 21.53846153846154 M 26 21.53846153846154 L 24 18.461538461538463 M 26 21.53846153846154 L 25 18.461538461538463 M 26 21.53846153846154 L 26 18.461538461538463 M 26 21.53846153846154 L 27 18.461538461538463 M 26 21.53846153846154 L 28.000000000000004 18.461538461538463 M 30 30.76923076923077 L 34 21.53846153846154 M 34 21.53846153846154 L 32 18.461538461538463 M 34 21.53846153846154 L 33 18.461538461538463 M 34 21.53846153846154 L 34 18.461538461538463 M 34 21.53846153846154 L 35 18.461538461538463 M 34 21.53846153846154 L 36.00000000000001 18.461538461538463 M 30 30.76923076923077 L 42.00000000000001 21.53846153846154 M 42.00000000000001 21.53846153846154 L 40 18.461538461538463 M 42.00000000000001 21.53846153846154 L 41 18.461538461538463 M 42.00000000000001 21.53846153846154 L 42.00000000000001 18.461538461538463 M 42.00000000000001 21.53846153846154 L 43.00000000000001 18.461538461538463 M 42.00000000000001 21.53846153846154 L 44.00000000000001 18.461538461538463 M 30 30.76923076923077 L 50 21.53846153846154 M 50 21.53846153846154 L 48 18.461538461538463 M 50 21.53846153846154 L 49 18.461538461538463 M 50 21.53846153846154 L 50 18.461538461538463 M 50 21.53846153846154 L 51 18.461538461538463 M 50 21.53846153846154 L 52 18.461538461538463"/>
<path class="gold-path" d="M 50 100 L 50 92.3076923076923 M 50 92.3076923076923 L 70 76.92307692307693 M 70 76.92307692307693 L 30 61.53846153846154 M 30 61.53846153846154 L 30 46.15384615384615 M 30 46.15384615384615 L 30 30.76923076923077 M 30 30.76923076923077 L 9.999999999999998 15.384615384615385 M 9.999999999999998 15.384615384615385 L 8.999999999999996 12.307692307692308"/>
</svg>